<svg width="162" height="33" viewBox="0 0 162 33" fill="none" xmlns="http://www.w3.org/2000/svg">
<rect x="0.5" y="0.5" width="34" height="32" rx="8.5" stroke="black"/>
<path d="M9.89205 25H7.09659L13.3778 7.54545H16.4205L22.7017 25H19.9062L14.9716 10.7159H14.8352L9.89205 25ZM10.3608 18.1648H19.429V20.3807H10.3608V18.1648ZM25.9358 7.54545V25H23.3023V7.54545H25.9358Z" fill="black"/>
<path d="M37.598 23.5V8.95455H42.7827C43.9096 8.95455 44.8447 9.14867 45.5881 9.53693C46.3362 9.92519 46.8949 10.4626 47.2642 11.1491C47.6335 11.831 47.8182 12.6193 47.8182 13.5142C47.8182 14.4044 47.6312 15.188 47.2571 15.8651C46.8878 16.5374 46.3291 17.0606 45.581 17.4347C44.8376 17.8087 43.9025 17.9957 42.7756 17.9957H38.848V16.1065H42.5767C43.2869 16.1065 43.8646 16.0047 44.3097 15.8011C44.7595 15.5975 45.0885 15.3016 45.2969 14.9134C45.5052 14.5251 45.6094 14.0587 45.6094 13.5142C45.6094 12.965 45.5028 12.4891 45.2898 12.0866C45.0814 11.6842 44.7524 11.3764 44.3026 11.1634C43.8575 10.9455 43.2727 10.8366 42.5483 10.8366H39.7926V23.5H37.598ZM44.7784 16.9375L48.3722 23.5H45.8722L42.3494 16.9375H44.7784ZM53.2832 23.7202C52.2084 23.7202 51.2827 23.4905 50.5062 23.0312C49.7344 22.5672 49.1378 21.9162 48.7164 21.0781C48.2997 20.2353 48.0914 19.2481 48.0914 18.1165C48.0914 16.9991 48.2997 16.0142 48.7164 15.1619C49.1378 14.3097 49.7249 13.6444 50.4778 13.1662C51.2353 12.688 52.1208 12.4489 53.134 12.4489C53.7496 12.4489 54.3461 12.5507 54.9238 12.7543C55.5014 12.9579 56.0199 13.2775 56.4792 13.7131C56.9385 14.1487 57.3007 14.7145 57.5658 15.4105C57.831 16.1018 57.9636 16.9422 57.9636 17.9318V18.6847H49.2917V17.0938H55.8826C55.8826 16.535 55.769 16.0402 55.5417 15.6094C55.3144 15.1738 54.9948 14.8305 54.5829 14.5795C54.1757 14.3286 53.6975 14.2031 53.1482 14.2031C52.5516 14.2031 52.0308 14.3499 51.5857 14.6435C51.1454 14.9323 50.8045 15.3111 50.563 15.7798C50.3263 16.2438 50.2079 16.7481 50.2079 17.2926V18.5355C50.2079 19.2647 50.3357 19.8849 50.5914 20.3963C50.8518 20.9077 51.214 21.2983 51.6781 21.5682C52.1421 21.8333 52.6842 21.9659 53.3045 21.9659C53.7069 21.9659 54.0739 21.9091 54.4053 21.7955C54.7368 21.6771 55.0232 21.5019 55.2647 21.2699C55.5062 21.0379 55.6908 20.7514 55.8187 20.4105L57.8286 20.7727C57.6676 21.3646 57.3788 21.883 56.9621 22.3281C56.5502 22.7685 56.0317 23.1117 55.4067 23.358C54.7865 23.5994 54.0786 23.7202 53.2832 23.7202ZM60.8433 17.0227V23.5H58.7197V12.5909H60.7581V14.3665H60.893C61.144 13.7888 61.537 13.3248 62.072 12.9744C62.6118 12.6241 63.2912 12.4489 64.1104 12.4489C64.8537 12.4489 65.5048 12.6051 66.0635 12.9176C66.6222 13.2254 67.0554 13.6847 67.3632 14.2955C67.671 14.9062 67.8249 15.6615 67.8249 16.5611V23.5H65.7013V16.8168C65.7013 16.026 65.4953 15.4081 65.0834 14.9631C64.6714 14.5133 64.1056 14.2884 63.3859 14.2884C62.8935 14.2884 62.4555 14.3949 62.072 14.608C61.6932 14.821 61.3926 15.1335 61.17 15.5455C60.9522 15.9527 60.8433 16.4451 60.8433 17.0227ZM73.1567 23.7131C72.276 23.7131 71.49 23.4882 70.7987 23.0384C70.1122 22.5838 69.5724 21.9375 69.1794 21.0994C68.7911 20.2566 68.597 19.2457 68.597 18.0668C68.597 16.8878 68.7935 15.8793 69.1865 15.0412C69.5842 14.2031 70.1287 13.5616 70.82 13.1165C71.5113 12.6714 72.2949 12.4489 73.1709 12.4489C73.848 12.4489 74.3925 12.5625 74.8044 12.7898C75.2211 13.0123 75.543 13.2727 75.7703 13.571C76.0023 13.8693 76.1822 14.1321 76.3101 14.3594H76.4379V8.95455H78.5615V23.5H76.4876V21.8026H76.3101C76.1822 22.0346 75.9976 22.2997 75.7561 22.598C75.5194 22.8963 75.1927 23.1567 74.776 23.3793C74.3593 23.6018 73.8196 23.7131 73.1567 23.7131ZM73.6254 21.902C74.2362 21.902 74.7523 21.741 75.1737 21.419C75.5999 21.0923 75.9218 20.6402 76.1396 20.0625C76.3622 19.4848 76.4734 18.8125 76.4734 18.0455C76.4734 17.2879 76.3645 16.625 76.1467 16.0568C75.9289 15.4886 75.6093 15.0459 75.1879 14.7287C74.7665 14.4115 74.2457 14.2528 73.6254 14.2528C72.9862 14.2528 72.4536 14.4186 72.0274 14.75C71.6013 15.0814 71.2793 15.5336 71.0615 16.1065C70.8484 16.6795 70.7419 17.3258 70.7419 18.0455C70.7419 18.7746 70.8508 19.4304 71.0686 20.0128C71.2864 20.5952 71.6084 21.0568 72.0345 21.3977C72.4654 21.7339 72.9957 21.902 73.6254 21.902ZM84.6941 23.7202C83.6193 23.7202 82.6936 23.4905 81.9171 23.0312C81.1453 22.5672 80.5487 21.9162 80.1273 21.0781C79.7107 20.2353 79.5023 19.2481 79.5023 18.1165C79.5023 16.9991 79.7107 16.0142 80.1273 15.1619C80.5487 14.3097 81.1359 13.6444 81.8887 13.1662C82.6463 12.688 83.5317 12.4489 84.545 12.4489C85.1605 12.4489 85.7571 12.5507 86.3347 12.7543C86.9124 12.9579 87.4308 13.2775 87.8901 13.7131C88.3494 14.1487 88.7116 14.7145 88.9768 15.4105C89.2419 16.1018 89.3745 16.9422 89.3745 17.9318V18.6847H80.7026V17.0938H87.2935C87.2935 16.535 87.1799 16.0402 86.9526 15.6094C86.7254 15.1738 86.4058 14.8305 85.9938 14.5795C85.5866 14.3286 85.1084 14.2031 84.5592 14.2031C83.9626 14.2031 83.4417 14.3499 82.9967 14.6435C82.5563 14.9323 82.2154 15.3111 81.9739 15.7798C81.7372 16.2438 81.6188 16.7481 81.6188 17.2926V18.5355C81.6188 19.2647 81.7467 19.8849 82.0023 20.3963C82.2628 20.9077 82.625 21.2983 83.089 21.5682C83.553 21.8333 84.0951 21.9659 84.7154 21.9659C85.1179 21.9659 85.4848 21.9091 85.8163 21.7955C86.1477 21.6771 86.4342 21.5019 86.6756 21.2699C86.9171 21.0379 87.1018 20.7514 87.2296 20.4105L89.2396 20.7727C89.0786 21.3646 88.7897 21.883 88.3731 22.3281C87.9611 22.7685 87.4427 23.1117 86.8177 23.358C86.1974 23.5994 85.4896 23.7202 84.6941 23.7202ZM90.1307 23.5V12.5909H92.1832V14.3239H92.2969C92.4957 13.7367 92.8461 13.2751 93.348 12.9389C93.8546 12.598 94.4276 12.4276 95.0668 12.4276C95.1993 12.4276 95.3556 12.4323 95.5355 12.4418C95.7202 12.4512 95.8646 12.4631 95.9688 12.4773V14.5085C95.8835 14.4848 95.732 14.4588 95.5142 14.4304C95.2964 14.3973 95.0786 14.3807 94.8608 14.3807C94.3589 14.3807 93.9115 14.4872 93.5185 14.7003C93.1302 14.9086 92.8224 15.1998 92.5952 15.5739C92.3679 15.9432 92.2543 16.3646 92.2543 16.8381V23.5H90.1307ZM96.2065 23.5V12.5909H98.33V23.5H96.2065ZM97.2789 10.9077C96.9096 10.9077 96.5924 10.7846 96.3272 10.5384C96.0668 10.2874 95.9366 9.98911 95.9366 9.64347C95.9366 9.29309 96.0668 8.99479 96.3272 8.74858C96.5924 8.49763 96.9096 8.37216 97.2789 8.37216C97.6482 8.37216 97.9631 8.49763 98.2235 8.74858C98.4887 8.99479 98.6212 9.29309 98.6212 9.64347C98.6212 9.98911 98.4887 10.2874 98.2235 10.5384C97.9631 10.7846 97.6482 10.9077 97.2789 10.9077ZM101.711 17.0227V23.5H99.5869V12.5909H101.625V14.3665H101.76C102.011 13.7888 102.404 13.3248 102.939 12.9744C103.479 12.6241 104.158 12.4489 104.978 12.4489C105.721 12.4489 106.372 12.6051 106.931 12.9176C107.489 13.2254 107.923 13.6847 108.23 14.2955C108.538 14.9062 108.692 15.6615 108.692 16.5611V23.5H106.568V16.8168C106.568 16.026 106.362 15.4081 105.951 14.9631C105.539 14.5133 104.973 14.2884 104.253 14.2884C103.761 14.2884 103.323 14.3949 102.939 14.608C102.56 14.821 102.26 15.1335 102.037 15.5455C101.819 15.9527 101.711 16.4451 101.711 17.0227ZM114.514 27.8182C113.647 27.8182 112.902 27.7045 112.277 27.4773C111.656 27.25 111.15 26.9493 110.757 26.5753C110.364 26.2012 110.07 25.7917 109.876 25.3466L111.701 24.5938C111.829 24.8021 112 25.0223 112.213 25.2543C112.431 25.491 112.724 25.6922 113.093 25.858C113.468 26.0237 113.948 26.1065 114.535 26.1065C115.34 26.1065 116.005 25.91 116.531 25.517C117.057 25.1288 117.319 24.5085 117.319 23.6562V21.5114H117.184C117.057 21.7434 116.872 22.0014 116.63 22.2855C116.394 22.5696 116.067 22.8158 115.65 23.0241C115.234 23.2325 114.691 23.3366 114.024 23.3366C113.162 23.3366 112.386 23.1354 111.694 22.733C111.008 22.3258 110.463 21.7268 110.061 20.9361C109.663 20.1406 109.464 19.1629 109.464 18.0028C109.464 16.8428 109.661 15.8485 110.054 15.0199C110.451 14.1913 110.996 13.5568 111.687 13.1165C112.379 12.6714 113.162 12.4489 114.038 12.4489C114.715 12.4489 115.262 12.5625 115.679 12.7898C116.095 13.0123 116.42 13.2727 116.652 13.571C116.888 13.8693 117.071 14.1321 117.199 14.3594H117.355V12.5909H119.436V23.7415C119.436 24.679 119.218 25.4484 118.782 26.0497C118.347 26.651 117.757 27.0961 117.014 27.3849C116.275 27.6738 115.442 27.8182 114.514 27.8182ZM114.493 21.5753C115.103 21.5753 115.62 21.4332 116.041 21.1491C116.467 20.8603 116.789 20.4484 117.007 19.9134C117.229 19.3736 117.341 18.7273 117.341 17.9744C117.341 17.2405 117.232 16.5942 117.014 16.0355C116.796 15.4768 116.477 15.0412 116.055 14.7287C115.634 14.4115 115.113 14.2528 114.493 14.2528C113.853 14.2528 113.321 14.4186 112.895 14.75C112.468 15.0767 112.146 15.5218 111.929 16.0852C111.716 16.6487 111.609 17.2784 111.609 17.9744C111.609 18.6894 111.718 19.3168 111.936 19.8565C112.154 20.3963 112.476 20.8177 112.902 21.1207C113.333 21.4238 113.863 21.5753 114.493 21.5753ZM122.083 23.6349C121.695 23.6349 121.361 23.4976 121.082 23.223C120.802 22.9437 120.662 22.6075 120.662 22.2145C120.662 21.8262 120.802 21.4948 121.082 21.2202C121.361 20.9408 121.695 20.8011 122.083 20.8011C122.471 20.8011 122.805 20.9408 123.084 21.2202C123.364 21.4948 123.503 21.8262 123.503 22.2145C123.503 22.4749 123.437 22.714 123.305 22.9318C123.177 23.1449 123.006 23.3153 122.793 23.4432C122.58 23.571 122.343 23.6349 122.083 23.6349ZM129.343 23.7202C128.287 23.7202 127.378 23.4811 126.616 23.0028C125.858 22.5199 125.276 21.8546 124.869 21.0071C124.461 20.1596 124.258 19.1889 124.258 18.0952C124.258 16.9872 124.466 16.0095 124.883 15.1619C125.299 14.3097 125.887 13.6444 126.644 13.1662C127.402 12.688 128.294 12.4489 129.322 12.4489C130.15 12.4489 130.889 12.6027 131.538 12.9105C132.186 13.2135 132.71 13.6397 133.107 14.1889C133.51 14.7382 133.749 15.3797 133.825 16.1136H131.758C131.644 15.6023 131.384 15.1619 130.977 14.7926C130.574 14.4233 130.034 14.2386 129.357 14.2386C128.765 14.2386 128.247 14.3949 127.802 14.7074C127.362 15.0152 127.018 15.4555 126.772 16.0284C126.526 16.5966 126.403 17.2689 126.403 18.0455C126.403 18.8409 126.523 19.5275 126.765 20.1051C127.006 20.6828 127.347 21.1302 127.788 21.4474C128.233 21.7647 128.756 21.9233 129.357 21.9233C129.76 21.9233 130.124 21.8499 130.451 21.7031C130.782 21.5516 131.059 21.3362 131.282 21.0568C131.509 20.7775 131.668 20.4413 131.758 20.0483H133.825C133.749 20.7538 133.519 21.3835 133.136 21.9375C132.752 22.4915 132.238 22.9271 131.594 23.2443C130.955 23.5616 130.205 23.7202 129.343 23.7202ZM139.091 23.7202C138.068 23.7202 137.175 23.4858 136.413 23.017C135.651 22.5483 135.059 21.8925 134.638 21.0497C134.216 20.2069 134.005 19.2221 134.005 18.0952C134.005 16.9635 134.216 15.974 134.638 15.1264C135.059 14.2789 135.651 13.6207 136.413 13.152C137.175 12.6832 138.068 12.4489 139.091 12.4489C140.113 12.4489 141.006 12.6832 141.768 13.152C142.531 13.6207 143.122 14.2789 143.544 15.1264C143.965 15.974 144.176 16.9635 144.176 18.0952C144.176 19.2221 143.965 20.2069 143.544 21.0497C143.122 21.8925 142.531 22.5483 141.768 23.017C141.006 23.4858 140.113 23.7202 139.091 23.7202ZM139.098 21.9375C139.761 21.9375 140.31 21.7623 140.746 21.4119C141.181 21.0616 141.503 20.5952 141.711 20.0128C141.925 19.4304 142.031 18.7888 142.031 18.0881C142.031 17.392 141.925 16.7528 141.711 16.1705C141.503 15.5833 141.181 15.1122 140.746 14.7571C140.31 14.402 139.761 14.2244 139.098 14.2244C138.43 14.2244 137.876 14.402 137.436 14.7571C137 15.1122 136.676 15.5833 136.463 16.1705C136.255 16.7528 136.15 17.392 136.15 18.0881C136.15 18.7888 136.255 19.4304 136.463 20.0128C136.676 20.5952 137 21.0616 137.436 21.4119C137.876 21.7623 138.43 21.9375 139.098 21.9375ZM144.946 23.5V12.5909H146.985V14.3665H147.12C147.347 13.7652 147.719 13.2964 148.235 12.9602C148.751 12.6193 149.369 12.4489 150.088 12.4489C150.818 12.4489 151.428 12.6193 151.921 12.9602C152.418 13.3011 152.785 13.7699 153.022 14.3665H153.135C153.396 13.7841 153.81 13.3201 154.378 12.9744C154.946 12.6241 155.623 12.4489 156.409 12.4489C157.399 12.4489 158.206 12.759 158.831 13.3793C159.461 13.9995 159.776 14.9347 159.776 16.1847V23.5H157.652V16.3835C157.652 15.6449 157.451 15.1098 157.049 14.7784C156.646 14.447 156.166 14.2812 155.607 14.2812C154.916 14.2812 154.378 14.4943 153.995 14.9205C153.611 15.3419 153.419 15.884 153.419 16.5469V23.5H151.303V16.2486C151.303 15.6567 151.118 15.1809 150.749 14.821C150.38 14.4612 149.899 14.2812 149.307 14.2812C148.905 14.2812 148.533 14.3878 148.192 14.6009C147.856 14.8092 147.584 15.1004 147.375 15.4744C147.172 15.8485 147.07 16.2817 147.07 16.7741V23.5H144.946Z" fill="black"/>
</svg>
