<svg xmlns="http://www.w3.org/2000/svg" viewBox="0 0 24 24" fill="none">
  <path d="M18.5 9.5c.3 0 .6-.1.8-.3l1.5-1.5c.4-.4.4-1 0-1.4-.4-.4-1-.4-1.4 0l-1.5 1.5c-.4.4-.4 1 0 1.4.2.2.4.3.6.3zm-3-3c.3 0 .6-.1.8-.3.4-.4.4-1 0-1.4l-1.5-1.5c-.4-.4-1-.4-1.4 0-.4.4-.4 1 0 1.4l1.5 1.5c.2.2.4.3.6.3zM12 5c.6 0 1-.4 1-1V2c0-.6-.4-1-1-1s-1 .4-1 1v2c0 .6.4 1 1 1zM8.5 6.5c.3 0 .6-.1.8-.3l1.5-1.5c.4-.4.4-1 0-1.4-.4-.4-1-.4-1.4 0L7.9 4.8c-.4.4-.4 1 0 1.4.2.2.4.3.6.3zM5 12c0-.6-.4-1-1-1H2c-.6 0-1 .4-1 1s.4 1 1 1h2c.6 0 1-.4 1-1zm17-1h-2c-.6 0-1 .4-1 1s.4 1 1 1h2c.6 0 1-.4 1-1s-.4-1-1-1zm-5 7c-3.9 0-7-3.1-7-7s3.1-7 7-7 7 3.1 7 7-3.1 7-7 7zm0-12c-2.8 0-5 2.2-5 5s2.2 5 5 5 5-2.2 5-5-2.2-5-5-5z" fill="#F38020"/>
</svg>
