<svg xmlns="http://www.w3.org/2000/svg" viewBox="0 0 48 48" fill="currentColor">
  <path d="M24 4C12.954 4 4 12.954 4 24s8.954 20 20 20 20-8.954 20-20S35.046 4 24 4zm0 2c9.941 0 18 8.059 18 18s-8.059 18-18 18S6 33.941 6 24 14.059 6 24 6zm0 4c-7.732 0-14 6.268-14 14s6.268 14 14 14c3.095 0 5.953-.988 8.285-2.664l-1.414-1.414C28.953 35.598 26.573 36 24 36c-6.627 0-12-5.373-12-12s5.373-12 12-12c2.573 0 4.953.402 6.871 2.078l1.414-1.414C30.953 10.988 28.095 10 24 10zm8 10v2h2v2h-2v2h-2v-2h-2v-2h2v-2h2zm6 0v2h2v2h-2v2h-2v-2h-2v-2h2v-2h2z"/>
</svg>
