<svg xmlns="http://www.w3.org/2000/svg" viewBox="0 0 24 24" fill="none">
  <path d="M13.983 11.078h2.119a.186.186 0 00.186-.185V9.006a.186.186 0 00-.186-.186h-2.119a.185.185 0 00-.185.185v1.888c0 .102.083.185.185.185m-2.954-5.43h2.118a.186.186 0 00.186-.186V3.574a.186.186 0 00-.186-.185h-2.118a.185.185 0 00-.185.185v1.888c0 .102.082.185.185.185m0 2.716h2.118a.187.187 0 00.186-.186V6.29a.186.186 0 00-.186-.185h-2.118a.185.185 0 00-.185.185v1.887c0 .102.082.185.185.186m-2.93 0h2.12a.186.186 0 00.184-.186V6.29a.185.185 0 00-.185-.185H8.1a.185.185 0 00-.185.185v1.887c0 .102.083.185.185.186m-2.964 0h2.119a.186.186 0 00.185-.186V6.29a.185.185 0 00-.185-.185H5.136a.186.186 0 00-.186.185v1.887c0 .102.084.185.186.186m5.893 2.715h2.118a.186.186 0 00.186-.185V9.006a.186.186 0 00-.186-.186h-2.118a.185.185 0 00-.185.185v1.888c0 .102.082.185.185.185m-2.93 0h2.12a.185.185 0 00.184-.185V9.006a.185.185 0 00-.184-.186h-2.12a.185.185 0 00-.184.185v1.888c0 .102.083.185.185.185m-2.964 0h2.119a.185.185 0 00.185-.185V9.006a.185.185 0 00-.184-.186h-2.12a.186.186 0 00-.186.186v1.887c0 .102.084.185.186.185m-2.92 0h2.12a.185.185 0 00.184-.185V9.006a.185.185 0 00-.184-.186h-2.12a.185.185 0 00-.184.185v1.888c0 .102.082.185.185.185M23.763 9.89c-.065-.051-.672-.51-1.954-.51-.338 0-.676.03-1.01.09-.478-1.265-1.333-2.396-2.526-3.35l-.23-.14-.145.217c-.415.618-.616 1.244-.616 1.916 0 .903.391 1.758 1.1 2.437-.696.382-1.457.59-2.26.59H.386c-.23 0-.348.16-.348.16C.014 11.58 0 12.862 0 13.256c0 1.935.45 3.753 1.337 5.398.827 1.55 2.007 2.8 3.503 3.71 1.52.928 3.31 1.398 5.324 1.398 1.083 0 2.15-.113 3.17-.334 1.623-.354 3.13-.97 4.474-1.829 1.233-.79 2.3-1.776 3.17-2.929.768-1.017 1.415-2.14 1.92-3.333.167-.394.323-.808.466-1.233h.036c1.083 0 1.957-.38 2.6-1.13.377-.445.647-.977.805-1.584l.038-.218-.202-.122zM22.342 10.157c.565.045 1.032.206 1.375.485-.097.115-.22.223-.368.327-.29.206-.65.316-1.074.316h-.28c-.044-.274-.088-.547-.15-.815l-.003-.029c.096-.028.192-.056.29-.082l.21-.002z" fill="#2496ED"/>
</svg>
