<svg xmlns="http://www.w3.org/2000/svg" viewBox="0 0 256 134" fill="currentColor">
  <path d="M128 0C57.221 0 0 29.851 0 66.667c0 36.815 57.221 66.666 128 66.666s128-29.851 128-66.666C256 29.851 198.779 0 128 0zm0 6.4c67.184 0 121.6 27.018 121.6 60.267 0 33.248-54.416 60.266-121.6 60.266S6.4 99.915 6.4 66.667C6.4 33.418 60.816 6.4 128 6.4z"/>
  <path d="M152.913 35.2h-12.8c-1.237 0-2.347.768-2.773 1.92l-12.8 35.84c-.213.597-.213 1.237 0 1.835.213.597.64 1.067 1.195 1.323a2.773 2.773 0 0 0 1.578.299h8.917c1.237 0 2.347-.768 2.773-1.92l2.773-7.68h10.667c9.387 0 17.067-7.68 17.067-17.067 0-9.386-7.68-17.066-17.067-17.066zm-3.2 21.333h-8.533l5.333-14.933h3.2c4.693 0 8.533 3.84 8.533 8.533 0 4.694-3.84 8.534-8.533 8.534zm-58.24-21.333h-12.8c-1.237 0-2.347.768-2.773 1.92l-12.8 35.84c-.213.597-.213 1.237 0 1.835.213.597.64 1.067 1.195 1.323a2.773 2.773 0 0 0 1.578.299h8.917c1.237 0 2.347-.768 2.773-1.92l2.773-7.68h10.667c9.387 0 17.067-7.68 17.067-17.067 0-9.386-7.68-17.066-17.067-17.066zm-3.2 21.333h-8.533l5.333-14.933h3.2c4.693 0 8.533 3.84 8.533 8.533 0 4.694-3.84 8.534-8.533 8.534zM193.067 35.2h-8.533c-1.237 0-2.347.768-2.773 1.92l-12.8 35.84c-.213.597-.213 1.237 0 1.835.213.597.64 1.067 1.195 1.323a2.773 2.773 0 0 0 1.578.299h8.533c1.237 0 2.347-.768 2.773-1.92l4.267-12.8h10.666c4.694 0 8.534-3.84 8.534-8.533V42.88c0-4.267-3.627-7.68-8.107-7.68zm-.426 17.067h-10.667l3.2-8.534h7.467c.64 0 1.067.427 1.067 1.067v6.4c0 .64-.427 1.067-1.067 1.067z"/>
</svg>
