<svg xmlns="http://www.w3.org/2000/svg" viewBox="0 0 24 24" fill="none">
  <path d="M17.128 0c-1.566.07-3.145.635-4.26 1.794-2.456 2.45-3.483 6.75-2.568 10.753.195.85.67 2.305.67 2.305s-.45.15-1.13.3c-1.02.225-1.815.3-2.58.225-1.53-.15-2.475-.75-3.03-1.8-.735-1.425-.81-3.3.15-5.25.18-.375.495-1.005.495-1.005l-.375-.15s-.69.525-1.215 1.5c-1.035 1.92-.96 4.2.225 5.925.69 1.005 1.815 1.65 3.225 1.875.75.12 1.62.075 2.61-.075.63-.105 1.155-.225 1.74-.375.48-.105.9-.225 1.32-.345l.18-.03c.03 0 .045.015.045.045 0 .09-.075.285-.165.6-.18.585-.36 1.425-.42 2.115-.135 1.455-.045 2.595.465 3.495.525.93 1.44 1.455 2.655 1.5 1.065.045 2.01-.225 2.835-.75 1.5-.945 2.685-2.58 3.45-4.74.45-1.26.75-2.805.81-4.38.045-.84-.03-1.575-.165-2.22l-.015-.075c.51-.18 1.005-.39 1.455-.645 1.125-.63 1.98-1.485 2.43-2.535.3-.705.36-1.5.165-2.265-.255-1.005-.945-1.875-1.965-2.46-.6-.345-1.29-.54-2.01-.57-.585-.03-1.185.06-1.785.27-.33-1.65-.99-3.15-1.92-4.335C19.848.795 18.643.15 17.433.015c-.105 0-.21-.015-.305-.015zm.165 1.5c.93.075 1.815.525 2.58 1.365.795.87 1.395 2.175 1.71 3.705-.555.345-1.185.645-1.875.9-.735.27-1.515.48-2.31.63.03-.24.045-.48.045-.72 0-1.455-.3-2.865-.81-4.08-.195-.465-.45-.915-.72-1.32.405-.285.885-.45 1.38-.48zm-3.795.87c.255.255.48.57.675.93.48.885.75 2.085.75 3.465 0 .255-.015.51-.045.765-1.125.12-2.28.18-3.45.18-1.155 0-2.295-.06-3.405-.18-.03-.255-.045-.51-.045-.765 0-1.38.27-2.58.75-3.465.48-.9 1.185-1.5 2.025-1.5.84 0 1.545.6 2.025 1.5.195.36.42.675.72.93zm5.73 1.56c.48-.165.975-.225 1.44-.195.555.03 1.065.18 1.5.435.72.42 1.185 1.035 1.35 1.725.135.555.09 1.11-.105 1.635-.36.84-1.065 1.545-2.01 2.085-.63.36-1.38.66-2.19.885-.015-.615-.06-1.245-.165-1.875-.165-1.035-.465-2.04-.915-2.925-.21-.45-.465-.87-.75-1.26.255-.165.51-.315.81-.465l.015-.045zm-7.485 5.055c1.11.12 2.25.18 3.405.18 1.17 0 2.325-.06 3.45-.18.06.66.09 1.35.09 2.055 0 1.485-.135 2.955-.375 4.245-.12.645-.27 1.23-.45 1.725-.18.495-.39.885-.63 1.125-.24.24-.51.36-.78.36-.27 0-.54-.12-.78-.36-.24-.24-.45-.63-.63-1.125-.18-.495-.33-1.08-.45-1.725-.24-1.29-.375-2.76-.375-4.245 0-.705.03-1.395.09-2.055h.015zm9.195 1.335c.42.75.705 1.665.855 2.625.09.57.135 1.155.15 1.74-.735.18-1.5.315-2.28.39.03-.51.045-1.035.045-1.575 0-1.17-.06-2.295-.165-3.345.48-.09.945-.21 1.395-.345v.045zm-16.53.21c.105.225.255.48.45.705.39.465.96.825 1.71.975.54.105 1.17.135 1.86.06.48-.06.945-.15 1.41-.27-.105 1.05-.165 2.175-.165 3.345 0 .54.015 1.065.045 1.575-.945-.09-1.845-.27-2.685-.54-1.02-.33-1.92-.765-2.595-1.305.015-.495.045-1.005.09-1.515.12-1.275.465-2.52.9-3.54l-.045.03.015-.015.015-.03v-.015zm13.665 3.345c.795-.06 1.575-.18 2.325-.345.09.66.135 1.395.09 2.175-.06 1.485-.345 2.925-.765 4.095-.69 1.95-1.74 3.42-2.97 4.185-.615.39-1.29.6-1.98.57-.825-.03-1.395-.375-1.74-.975-.36-.63-.45-1.5-.345-2.625.06-.645.225-1.425.405-2.01.045-.165.09-.315.135-.45.03-.045.045-.105.06-.15.015-.045.015-.09.015-.135 0-.195-.12-.33-.3-.36-.015 0-.03-.015-.045-.015-.045 0-.09.015-.135.03-.015.015-.045.03-.075.045-.045.03-.09.09-.15.15-.09.12-.195.285-.33.495-.27.435-.63 1.065-.96 1.725-.315.63-.645 1.29-.9 1.86-.255.555-.435.99-.48 1.29-.075.39-.165.66-.315.825-.15.18-.36.21-.705.195-.345-.015-.765-.09-1.275-.255-.495-.165-1.065-.42-1.665-.78-1.215-.735-2.61-1.935-3.9-3.735-.93-1.29-1.77-2.865-2.46-4.665.555.42 1.23.735 2.01.975.915.285 1.89.48 2.91.585-.045.75-.075 1.53-.075 2.325 0 1.515.135 3.03.39 4.38.12.675.285 1.32.495 1.89.21.57.465 1.08.795 1.47.33.39.735.66 1.215.66.48 0 .885-.27 1.215-.66.33-.39.585-.9.795-1.47.21-.57.375-1.215.495-1.89.255-1.35.39-2.865.39-4.38 0-.795-.03-1.575-.075-2.325.87-.075 1.71-.21 2.52-.39z" fill="#336791"/>
</svg>
