<svg xmlns="http://www.w3.org/2000/svg" viewBox="0 0 144 144" fill="currentColor">
  <path d="M67.743 31.035a3.108 3.108 0 0 1 6.216 0l2.066 12.035c.167.972.767 1.823 1.632 2.318a27.735 27.735 0 0 1 3.829 2.513c.726.563 1.666.802 2.577.652l12.287-2.03a3.108 3.108 0 0 1 3.108 5.378l-8.255 9.089c-.664.732-.917 1.753-.652 2.735.264.982.264 2.014 0 2.996-.265.982-.018 2.003.652 2.735l8.255 9.089a3.108 3.108 0 0 1-3.108 5.378l-12.287-2.03c-.911-.15-1.851.089-2.577.652a27.735 27.735 0 0 1-3.829 2.513c-.865.495-1.465 1.346-1.632 2.318l-2.066 12.035a3.108 3.108 0 0 1-6.216 0l-2.066-12.035c-.167-.972-.767-1.823-1.632-2.318a27.735 27.735 0 0 1-3.829-2.513c-.726-.563-1.666-.802-2.577-.652l-12.287 2.03a3.108 3.108 0 0 1-3.108-5.378l8.255-9.089c.664-.732.917-1.753.652-2.735a10.223 10.223 0 0 1 0-2.996c.265-.982.018-2.003-.652-2.735l-8.255-9.089a3.108 3.108 0 0 1 3.108-5.378l12.287 2.03c.911.15 1.851-.089 2.577-.652a27.735 27.735 0 0 1 3.829-2.513c.865-.495 1.465-1.346 1.632-2.318l2.066-12.035zM37.5 71.5a34 34 0 1 1 68 0 34 34 0 0 1-68 0z"/>
  <circle cx="71.5" cy="71.5" r="17"/>
</svg>
