<svg xmlns="http://www.w3.org/2000/svg" viewBox="0 0 24 24" fill="none">
  <path d="M13.479 9.883c-1.626-.604-2.512-1.067-2.512-1.803 0-.622.511-.977 1.423-.977 1.667 0 3.379.642 4.558 1.22l.666-4.111c-.935-.446-2.847-1.177-5.49-1.177-1.87 0-3.425.489-4.536 1.401-1.155.954-1.757 2.334-1.757 4 0 3.023 1.847 4.312 4.847 5.403 1.936.688 2.579 1.178 2.579 1.934 0 .732-.629 1.155-1.762 1.155-1.403 0-3.716-.689-5.231-1.534l-.674 4.135c1.121.578 3.23 1.401 5.317 1.401 1.936 0 3.534-.467 4.666-1.37 1.207-.977 1.826-2.467 1.826-4.402 0-2.977-1.847-4.246-4.92-5.275z" fill="#635BFF"/>
</svg>
