<svg xmlns="http://www.w3.org/2000/svg" viewBox="0 0 24 24" fill="none">
  <rect width="24" height="24" rx="4" fill="#3178C6"/>
  <path d="M14 9.5h-2.5V20h-2V9.5H7V8h7v1.5zm6.5 10.5h-2.2l-.5-.8c-.4.5-.9.9-1.5 1.1-.5.2-1.1.3-1.7.3-1 0-1.8-.3-2.3-.8-.6-.5-.8-1.2-.8-2.1 0-.6.1-1.1.4-1.5.3-.4.7-.7 1.2-.9.5-.2 1.2-.4 2-.5l1.7-.2v-.4c0-.5-.1-.9-.4-1.1-.3-.2-.7-.3-1.2-.3-.4 0-.8.1-1.1.3-.3.2-.5.5-.5.9h-2c0-.6.2-1.1.5-1.5.3-.4.8-.7 1.4-.9.6-.2 1.3-.3 2-.3 1.2 0 2.2.3 2.9.8.7.5 1 1.3 1 2.4v5.6c0 .4 0 .8.1 1.1.1.3.2.5.4.7v.1zm-3.4-1.5c.4 0 .7-.1 1-.2.3-.1.6-.3.8-.6v-2l-1.3.2c-.6.1-1 .2-1.3.4-.3.2-.4.5-.4.8 0 .3.1.6.4.8.2.2.5.3.8.3z" fill="white"/>
</svg>
